<?xml version="1.0" encoding="iso-8859-1"?>
<!-- Generator: Adobe Illustrator 16.0.0, SVG Export Plug-In . SVG Version: 6.00 Build 0)  -->
<!DOCTYPE svg PUBLIC "-//W3C//DTD SVG 1.1//EN" "http://www.w3.org/Graphics/SVG/1.1/DTD/svg11.dtd">
<svg version="1.1" id="Capa_1" xmlns="http://www.w3.org/2000/svg" xmlns:xlink="http://www.w3.org/1999/xlink" x="0px" y="0px"
	 width="30.997px" height="30.997px" viewBox="0 0 30.997 30.997" style="enable-background:new 0 0 30.997 30.997;"
	 xml:space="preserve">
<g>
	<path fill="white" d="M29.697,1.27c-1.089,0.264-10.09,2.44-17.011,4.113c0.056-0.094,0.112-0.188,0.168-0.282
		c0.488-0.745-0.692-1.214-2.302-0.569C9.976,4.876,9.369,5.503,8.753,6.333C6.254,6.937,4.57,7.345,4.57,7.345
		S3.977,7.77,4.445,8.075c0.999,0.049,2.133-0.041,3.28-0.202C3.922,14.134,0.025,26.378,0,27.469
		c-0.032,1.366,3.836,3.008,3.367,1.977c0.301-5.958,3.208-13.512,8.294-22.321c1.555-0.347,2.806-0.658,3.316-0.668
		c1.234-0.025,4.382-0.565,4.382-0.565s0.039,0.946,0.3,0.877c0.263-0.066,11.245-2.885,11.245-2.885S31.494,0.834,29.697,1.27z
		 M2.255,27.814c-0.179,0.151-0.448,0.129-0.601-0.051c-0.151-0.181-0.129-0.448,0.051-0.602c0.181-0.151,0.45-0.129,0.602,0.049
		C2.459,27.393,2.437,27.662,2.255,27.814z M11.087,6.366c-0.18,0.15-0.451,0.127-0.603-0.053c-0.15-0.18-0.128-0.449,0.051-0.601
		c0.18-0.152,0.45-0.129,0.601,0.051C11.288,5.942,11.267,6.212,11.087,6.366z"/>
</g>
</svg>
